<svg xmlns="http://www.w3.org/2000/svg" viewBox="0 0 512 512" width="512" height="512" fill="none">
  <defs>
    <linearGradient id="bg" x1="64" y1="48" x2="432" y2="464" gradientUnits="userSpaceOnUse">
      <stop offset="0" stop-color="#0f172a" />
      <stop offset="0.55" stop-color="#111827" />
      <stop offset="1" stop-color="#050816" />
    </linearGradient>
    <linearGradient id="stroke" x1="122" y1="138" x2="389" y2="366" gradientUnits="userSpaceOnUse">
      <stop offset="0" stop-color="#5eead4" />
      <stop offset="0.5" stop-color="#60a5fa" />
      <stop offset="1" stop-color="#818cf8" />
    </linearGradient>
    <linearGradient id="glow" x1="154" y1="118" x2="376" y2="372" gradientUnits="userSpaceOnUse">
      <stop offset="0" stop-color="#67e8f9" stop-opacity="0.8" />
      <stop offset="1" stop-color="#6366f1" stop-opacity="0.45" />
    </linearGradient>
    <filter id="softGlow" x="78" y="94" width="356" height="292" filterUnits="userSpaceOnUse">
      <feGaussianBlur stdDeviation="18" />
    </filter>
  </defs>

  <rect width="512" height="512" rx="104" fill="url(#bg)" />
  <rect x="18" y="18" width="476" height="476" rx="86" stroke="#94a3b8" stroke-opacity="0.18" stroke-width="2" />

  <g filter="url(#softGlow)" opacity="0.55">
    <path d="M126 344L192 164L256 278L320 164L386 344" stroke="url(#glow)" stroke-width="26" stroke-linecap="round" stroke-linejoin="round" />
    <path d="M188 282H324" stroke="url(#glow)" stroke-width="20" stroke-linecap="round" />
  </g>

  <path d="M126 344L192 164L256 278L320 164L386 344" stroke="url(#stroke)" stroke-width="24" stroke-linecap="round" stroke-linejoin="round" />
  <path d="M188 282H324" stroke="url(#stroke)" stroke-width="18" stroke-linecap="round" />

  <circle cx="192" cy="164" r="20" fill="#0b1120" stroke="#67e8f9" stroke-width="10" />
  <circle cx="320" cy="164" r="20" fill="#0b1120" stroke="#60a5fa" stroke-width="10" />
  <circle cx="256" cy="278" r="18" fill="#0b1120" stroke="#818cf8" stroke-width="9" />
  <circle cx="126" cy="344" r="16" fill="#0b1120" stroke="#5eead4" stroke-width="8" />
  <circle cx="386" cy="344" r="16" fill="#0b1120" stroke="#818cf8" stroke-width="8" />
</svg>
